<svg width="640px" height="206px" version="1.1" xmlns="http://www.w3.org/2000/svg" xmlns:xlink="http://www.w3.org/1999/xlink" overflow="visible" id="l19nj5e9">
   <desc>Engraved by Verovio 6.3.0-425dd7b</desc>
   <defs>
      <g id="E050-l19nj5e9">
         <path transform="scale(1,-1)" d="M441 -245c-23 -4 -48 -6 -76 -6c-59 0 -102 7 -130 20c-88 42 -150 93 -187 154c-26 44 -43 103 -48 176c0 6 -1 13 -1 19c0 54 15 111 45 170c29 57 65 106 110 148s96 85 153 127c-3 16 -8 46 -13 92c-4 43 -5 73 -5 89c0 117 16 172 69 257c34 54 64 82 89 82 c21 0 43 -30 69 -92s39 -115 41 -159v-15c0 -109 -21 -162 -67 -241c-13 -20 -63 -90 -98 -118c-13 -9 -25 -19 -37 -29l31 -181c8 1 18 2 28 2c58 0 102 -12 133 -35c59 -43 92 -104 98 -184c1 -7 1 -15 1 -22c0 -123 -87 -209 -181 -248c8 -57 17 -110 25 -162 c5 -31 6 -58 6 -80c0 -30 -5 -53 -14 -70c-35 -64 -88 -99 -158 -103c-5 0 -11 -1 -16 -1c-37 0 -72 10 -108 27c-50 24 -77 59 -80 105v11c0 29 7 55 20 76c18 28 45 42 79 44h6c49 0 93 -42 97 -87v-9c0 -51 -34 -86 -105 -106c17 -24 51 -36 102 -36c62 0 116 43 140 85 c9 16 13 41 13 74c0 20 -1 42 -5 67c-8 53 -18 106 -26 159zM461 939c-95 0 -135 -175 -135 -286c0 -24 2 -48 5 -71c50 39 92 82 127 128c40 53 60 100 60 140v8c-4 53 -22 81 -55 81h-2zM406 119l54 -326c73 25 110 78 110 161c0 7 0 15 -1 23c-7 95 -57 142 -151 142h-12 zM382 117c-72 -2 -128 -47 -128 -120v-7c2 -46 43 -99 75 -115c-3 -2 -7 -5 -10 -10c-70 33 -116 88 -123 172v11c0 68 44 126 88 159c23 17 49 29 78 36l-29 170c-21 -13 -52 -37 -92 -73c-50 -44 -86 -84 -109 -119c-45 -69 -67 -130 -67 -182v-13c5 -68 35 -127 93 -176 s125 -73 203 -73c25 0 50 3 75 9c-19 111 -36 221 -54 331z" />
      </g>
      <g id="E260-l19nj5e9">
         <path transform="scale(1,-1)" d="M20 110c32 16 54 27 93 27c26 0 35 -3 54 -13c13 -7 24 -20 27 -38l4 -25c0 -28 -16 -57 -45 -89c-23 -25 -39 -44 -65 -68l-88 -79v644h20v-359zM90 106c-32 0 -48 -10 -70 -29v-194c31 31 54 59 71 84c21 32 32 59 32 84c0 9 1 16 1 20c0 14 -3 21 -11 30l-8 3z" />
      </g>
      <g id="E0A4-l19nj5e9">
         <path transform="scale(1,-1)" d="M0 -39c0 68 73 172 200 172c66 0 114 -37 114 -95c0 -84 -106 -171 -218 -171c-64 0 -96 30 -96 94z" />
      </g>
      <g id="E261-l19nj5e9">
         <path transform="scale(1,-1)" d="M0 -188v539h18v-191l139 22v-533h-17v186zM18 -100l122 17v176l-122 -19v-174z" />
      </g>
      <g id="E4E6-l19nj5e9">
         <path transform="scale(1,-1)" d="M0 123c7 34 33 56 69 60c29 -3 43 -9 53 -29c4 -8 7 -15 10 -22c0 -21 -1 -25 -11 -35c-5 -8 -18 -14 -40 -20l12 -3l15 -1c44 0 97 26 122 56c10 11 18 26 24 42c7 1 15 2 22 3l-140 -424h-36l111 330c-10 -6 -27 -12 -53 -16l-52 -8h-10l-20 1c-1 0 -8 3 -21 6 c-37 9 -55 28 -55 60z" />
      </g>
      <g id="E4E5-l19nj5e9">
         <path transform="scale(1,-1)" d="M107 292c-13 24 -30 49 -52 71c-1 1 0 2 0 3l-2 2c3 3 4 4 6 4c12 0 26 -7 40 -20s44 -40 89 -81c26 -24 28 -29 46 -47c4 -4 8 -9 10 -14c6 -8 8 -16 8 -27c0 -19 -12 -40 -36 -61c-28 -23 -49 -38 -61 -73c-4 -11 -7 -27 -10 -50c13 -43 34 -83 59 -121 c31 -47 59 -79 101 -129c-8 0 -26 7 -54 20l-62 29l-21 6l-23 1c-25 0 -45 -10 -60 -30l-4 -14l-1 -12c0 -33 20 -56 39 -78c8 -9 17 -18 26 -26c17 -15 27 -24 28 -30l-3 -3c-11 5 -19 10 -25 15c-9 3 -37 21 -45 26c-24 14 -45 32 -63 51c-19 21 -37 44 -37 71 c0 63 27 95 80 95c41 0 86 -18 136 -52c-19 26 -37 48 -55 66c-23 23 -48 44 -73 65c-28 23 -47 40 -58 53s-17 26 -18 39c75 64 113 125 113 183c0 27 -7 48 -18 68z" />
      </g>
      <g id="E05C-l19nj5e9">
         <path transform="scale(1,-1)" d="M175 502h43v-456c10 5 18 12 37 29c16 19 22 27 27 38s8 24 14 49c3 22 5 43 5 62c7 -34 31 -54 73 -60c73 18 99 61 100 165c0 46 -10 78 -31 100c-18 23 -41 35 -69 35c-40 0 -65 -32 -66 -84c6 12 11 16 39 24c5 0 2 1 16 -4l17 -10l10 -14l7 -18 c-4 -32 -23 -48 -56 -48c-51 0 -77 33 -77 98c10 35 16 47 30 61c9 9 15 14 23 17c3 3 22 9 27 11l34 3l35 2c123 0 192 -64 192 -178l1 -33c0 -52 -20 -97 -60 -134c-18 -15 -42 -28 -74 -39c-30 -9 -63 -13 -101 -13l-93 -88v-34l93 -88c38 0 71 -4 101 -13 c32 -11 56 -24 74 -39c40 -37 60 -82 60 -134l-3 -33c0 -115 -68 -178 -190 -178l-35 2l-34 3c-5 2 -24 8 -27 11c-26 11 -40 32 -53 78c0 65 26 98 77 98c33 0 52 -16 56 -48l-7 -18l-10 -14l-17 -10c-14 -5 -11 -4 -16 -4c-28 8 -33 12 -39 24c1 -52 26 -84 66 -84 c28 0 51 12 69 35c21 22 31 54 31 100c-1 104 -27 147 -100 165c-42 -6 -66 -26 -73 -60c0 19 -2 40 -5 62c-6 25 -9 38 -14 49s-11 19 -27 38c-19 17 -27 24 -37 29v-456h-43v1004zM0 502h118v-1004h-118v1004z" />
      </g>
      <g id="E0A3-l19nj5e9">
         <path transform="scale(1,-1)" d="M278 64c0 22 -17 39 -43 39c-12 0 -26 -3 -41 -10c-85 -43 -165 -94 -165 -156c5 -25 15 -32 49 -32c67 11 200 95 200 159zM0 -36c0 68 73 174 200 174c66 0 114 -39 114 -97c0 -84 -106 -173 -218 -173c-64 0 -96 32 -96 96z" />
      </g>
      <g id="E4A3-l19nj5e9">
         <path transform="scale(1,-1)" d="M0 -48c0 26 22 48 48 48s48 -22 48 -48s-22 -48 -48 -48s-48 22 -48 48z" />
      </g>
   </defs>
   <style type="text/css">#l19nj5e9 g.ending, #l19nj5e9 g.fing, #l19nj5e9 g.reh, #l19nj5e9 g.tempo {font-weight:bold;}#l19nj5e9 g.dir, #l19nj5e9 g.dynam, #l19nj5e9 g.mNum {font-style:italic;}#l19nj5e9 g.label {font-weight:normal;}#l19nj5e9 ellipse, #l19nj5e9 path, #l19nj5e9 polygon, #l19nj5e9 polyline, #l19nj5e9 rect {stroke:currentColor}#l19nj5e9 g.cursor {fill:dodgerblue; color:dodgerblue;}#l19nj5e9 g.cursor.chord {fill:limegreen; color:limegreen;}</style>
   <svg class="definition-scale" color="black" font-family="Times, serif" viewBox="0 0 16000 5140">
      <g class="page-margin" transform="translate(500, 500)">
         <g data-id="ciflmpa" data-class="system" class="system">
            <g data-id="x1x384sn" data-class="measure" class="measure">
               <g data-id="d6vw2qk" data-class="mNum" class="mNum autogenerated">
                  <text y="837" text-anchor="middle" font-size="0px">
                     <tspan data-id="e1ro5ogc" data-class="text" class="text">
                        <tspan font-size="324px">312</tspan>
                     </tspan>
                  </text>
               </g>
               <g data-id="g4x43sk" data-class="staff" class="staff">
                  <path d="M0 1080 L3985 1080" stroke-width="13" />
                  <path d="M0 1260 L3985 1260" stroke-width="13" />
                  <path d="M0 1440 L3985 1440" stroke-width="13" />
                  <path d="M0 1620 L3985 1620" stroke-width="13" />
                  <path d="M0 1800 L3985 1800" stroke-width="13" />
                  <g data-id="e1wanxdx" data-class="clef" class="clef">
                     <use xlink:href="#E050-l19nj5e9" transform="translate(117, 1620) scale(0.72, 0.72)" />
                  </g>
                  <g data-id="f6n5yf6" data-class="keySig" class="keySig">
                     <g data-id="g1xrbq5y" data-class="keyAccid" class="keyAccid">
                        <use xlink:href="#E260-l19nj5e9" transform="translate(762, 1440) scale(0.72, 0.72)" />
                     </g>
                     <g data-id="h1dlgcej" data-class="keyAccid" class="keyAccid">
                        <use xlink:href="#E260-l19nj5e9" transform="translate(942, 1170) scale(0.72, 0.72)" />
                     </g>
                     <g data-id="i1swv2s0" data-class="keyAccid" class="keyAccid">
                        <use xlink:href="#E260-l19nj5e9" transform="translate(1122, 1530) scale(0.72, 0.72)" />
                     </g>
                  </g>
                  <g data-class="ledgerLines" class="ledgerLines below">
                     <g data-class="lineDash" class="lineDash" data-related="#iagddsn">
                        <path d="M1644 1980 L1966 1980" stroke-width="22" />
                     </g>
                     <g data-class="lineDash" class="lineDash" data-related="#iagddsn">
                        <path d="M1644 2160 L1966 2160" stroke-width="22" />
                     </g>
                  </g>
                  <g data-id="htwj02u" data-class="layer" class="layer">
                     <g data-id="j1lhmgs" data-class="chord" class="chord">
                        <g data-id="m1bak6h1" data-class="stem" class="stem">
                           <path d="M1909 2222 L1909 840" stroke-width="18" />
                        </g>
                        <g data-id="iagddsn" data-class="note" class="note">
                           <g data-class="notehead" class="notehead">
                              <use xlink:href="#E0A4-l19nj5e9" transform="translate(1692, 2250) scale(0.72, 0.72)" />
                           </g>
                        </g>
                        <g data-id="kht1o08" data-class="note" class="note">
                           <g data-class="notehead" class="notehead">
                              <use xlink:href="#E0A4-l19nj5e9" transform="translate(1692, 1890) scale(0.72, 0.72)" />
                           </g>
                        </g>
                        <g data-id="l7v2e52" data-class="note" class="note">
                           <g data-class="notehead" class="notehead">
                              <use xlink:href="#E0A4-l19nj5e9" transform="translate(1692, 1440) scale(0.72, 0.72)" />
                           </g>
                           <g data-id="m7yg5ka" data-class="accid" class="accid">
                              <use xlink:href="#E261-l19nj5e9" transform="translate(1534, 1440) scale(0.72, 0.72)" />
                           </g>
                        </g>
                     </g>
                     <g data-id="n1egl08o" data-class="rest" class="rest">
                        <use xlink:href="#E4E6-l19nj5e9" transform="translate(2382, 1350) scale(0.72, 0.72)" />
                     </g>
                     <g data-id="o15f2uh0" data-class="rest" class="rest">
                        <use xlink:href="#E4E5-l19nj5e9" transform="translate(2832, 1440) scale(0.72, 0.72)" />
                     </g>
                     <g data-id="phnslpr" data-class="rest" class="rest">
                        <use xlink:href="#E4E6-l19nj5e9" transform="translate(3522, 1350) scale(0.72, 0.72)" />
                     </g>
                  </g>
               </g>
               <g data-id="y1pd4m3p" data-class="staff" class="staff">
                  <path d="M0 2880 L3985 2880" stroke-width="13" />
                  <path d="M0 3060 L3985 3060" stroke-width="13" />
                  <path d="M0 3240 L3985 3240" stroke-width="13" />
                  <path d="M0 3420 L3985 3420" stroke-width="13" />
                  <path d="M0 3600 L3985 3600" stroke-width="13" />
                  <g data-id="jnpqsbx" data-class="clef" class="clef">
                     <use xlink:href="#E05C-l19nj5e9" transform="translate(117, 3240) scale(0.72, 0.72)" />
                  </g>
                  <g data-id="k1t44bqo" data-class="keySig" class="keySig">
                     <g data-id="l1pvp44x" data-class="keyAccid" class="keyAccid">
                        <use xlink:href="#E260-l19nj5e9" transform="translate(762, 3330) scale(0.72, 0.72)" />
                     </g>
                     <g data-id="mczz457" data-class="keyAccid" class="keyAccid">
                        <use xlink:href="#E260-l19nj5e9" transform="translate(942, 3060) scale(0.72, 0.72)" />
                     </g>
                     <g data-id="n1pmlu12" data-class="keyAccid" class="keyAccid">
                        <use xlink:href="#E260-l19nj5e9" transform="translate(1122, 3420) scale(0.72, 0.72)" />
                     </g>
                  </g>
                  <g data-id="z1htp743" data-class="layer" class="layer">
                     <g data-id="b4gr7ir" data-class="chord" class="chord">
                        <g data-id="n1b6h87m" data-class="stem" class="stem">
                           <path d="M1701 2908 L1701 4020" stroke-width="18" />
                        </g>
                        <g data-id="agkk4at" data-class="note" class="note">
                           <g data-class="notehead" class="notehead">
                              <use xlink:href="#E0A4-l19nj5e9" transform="translate(1692, 3510) scale(0.72, 0.72)" />
                           </g>
                        </g>
                        <g data-id="c1ejijrv" data-class="note" class="note">
                           <g data-class="notehead" class="notehead">
                              <use xlink:href="#E0A4-l19nj5e9" transform="translate(1692, 2880) scale(0.72, 0.72)" />
                           </g>
                        </g>
                     </g>
                     <g data-id="d1kii568" data-class="rest" class="rest">
                        <use xlink:href="#E4E6-l19nj5e9" transform="translate(2382, 3240) scale(0.72, 0.72)" />
                     </g>
                  </g>
               </g>
               <g data-id="ff9vp3" data-class="barLine" class="barLine">
                  <path d="M3972 1080 L3972 1800" stroke-width="27" />
                  <path d="M3972 2880 L3972 3600" stroke-width="27" />
               </g>
            </g>
            <g data-id="qa0dkph" data-class="measure" class="measure">
               <g data-id="z99e2y3" data-class="staff" class="staff">
                  <path d="M3985 1080 L7058 1080" stroke-width="13" />
                  <path d="M3985 1260 L7058 1260" stroke-width="13" />
                  <path d="M3985 1440 L7058 1440" stroke-width="13" />
                  <path d="M3985 1620 L7058 1620" stroke-width="13" />
                  <path d="M3985 1800 L7058 1800" stroke-width="13" />
                  <g data-class="ledgerLines" class="ledgerLines below">
                     <g data-class="lineDash" class="lineDash" data-related="#bqrs8yh">
                        <path d="M4117 1980 L4439 1980" stroke-width="22" />
                     </g>
                     <g data-class="lineDash" class="lineDash" data-related="#bqrs8yh">
                        <path d="M4117 2160 L4439 2160" stroke-width="22" />
                     </g>
                  </g>
                  <g data-id="aji0m1c" data-class="layer" class="layer">
                     <g data-id="coft055" data-class="chord" class="chord">
                        <g data-id="o14fv58n" data-class="stem" class="stem">
                           <path d="M4382 2222 L4382 780" stroke-width="18" />
                        </g>
                        <g data-id="bqrs8yh" data-class="note" class="note">
                           <g data-class="notehead" class="notehead">
                              <use xlink:href="#E0A4-l19nj5e9" transform="translate(4165, 2250) scale(0.72, 0.72)" />
                           </g>
                        </g>
                        <g data-id="dgnmcxg" data-class="note" class="note">
                           <g data-class="notehead" class="notehead">
                              <use xlink:href="#E0A4-l19nj5e9" transform="translate(4165, 1800) scale(0.72, 0.72)" />
                           </g>
                           <g data-id="e1uhb811" data-class="accid" class="accid" />
                        </g>
                        <g data-id="f1175rxu" data-class="note" class="note">
                           <g data-class="notehead" class="notehead">
                              <use xlink:href="#E0A4-l19nj5e9" transform="translate(4165, 1350) scale(0.72, 0.72)" />
                           </g>
                        </g>
                     </g>
                     <g data-id="g9plkj7" data-class="rest" class="rest">
                        <use xlink:href="#E4E6-l19nj5e9" transform="translate(4855, 1350) scale(0.72, 0.72)" />
                     </g>
                     <g data-id="hpinek3" data-class="note" class="note">
                        <g data-class="notehead" class="notehead">
                           <use xlink:href="#E0A4-l19nj5e9" transform="translate(5305, 1530) scale(0.72, 0.72)" />
                        </g>
                        <g data-id="p1ffov51" data-class="stem" class="stem">
                           <path d="M5522 1502 L5522 900" stroke-width="18" />
                        </g>
                        <g data-id="i1vxohvu" data-class="accid" class="accid" />
                     </g>
                  </g>
               </g>
               <g data-id="n19kxu3b" data-class="staff" class="staff">
                  <path d="M3985 2880 L7058 2880" stroke-width="13" />
                  <path d="M3985 3060 L7058 3060" stroke-width="13" />
                  <path d="M3985 3240 L7058 3240" stroke-width="13" />
                  <path d="M3985 3420 L7058 3420" stroke-width="13" />
                  <path d="M3985 3600 L7058 3600" stroke-width="13" />
                  <g data-class="ledgerLines" class="ledgerLines below">
                     <g data-class="lineDash" class="lineDash" data-related="#p181syua">
                        <path d="M4117 3780 L4439 3780" stroke-width="22" />
                     </g>
                  </g>
                  <g data-id="o10oz7dc" data-class="layer" class="layer">
                     <g data-id="qo4f8cq" data-class="chord" class="chord">
                        <g data-id="q153hmtr" data-class="stem" class="stem">
                           <path d="M4382 3842 L4382 2640" stroke-width="18" />
                        </g>
                        <g data-id="p181syua" data-class="note" class="note">
                           <g data-class="notehead" class="notehead">
                              <use xlink:href="#E0A4-l19nj5e9" transform="translate(4165, 3870) scale(0.72, 0.72)" />
                           </g>
                        </g>
                        <g data-id="r1uum964" data-class="note" class="note">
                           <g data-class="notehead" class="notehead">
                              <use xlink:href="#E0A4-l19nj5e9" transform="translate(4165, 3240) scale(0.72, 0.72)" />
                           </g>
                        </g>
                     </g>
                     <g data-id="s1qxk9" data-class="rest" class="rest">
                        <use xlink:href="#E4E6-l19nj5e9" transform="translate(4855, 3240) scale(0.72, 0.72)" />
                     </g>
                     <g data-id="t10zb95y" data-class="note" class="note">
                        <g data-class="notehead" class="notehead">
                           <use xlink:href="#E0A4-l19nj5e9" transform="translate(5305, 3330) scale(0.72, 0.72)" />
                        </g>
                        <g data-id="ruoq5co" data-class="stem" class="stem">
                           <path d="M5522 3302 L5522 2700" stroke-width="18" />
                        </g>
                     </g>
                     <g data-id="u1tyz511" data-class="note" class="note">
                        <g data-class="notehead" class="notehead">
                           <use xlink:href="#E0A3-l19nj5e9" transform="translate(5995, 3690) scale(0.72, 0.72)" />
                        </g>
                        <g data-id="s1kse2p8" data-class="stem" class="stem">
                           <path d="M6212 3662 L6212 3060" stroke-width="18" />
                        </g>
                        <g data-id="vurv532" data-class="artic" class="artic">
                           <use xlink:href="#E4A3-l19nj5e9" transform="translate(6074, 3813) scale(0.72, 0.72)" />
                        </g>
                     </g>
                  </g>
               </g>
               <g data-id="y1w7gs6y" data-class="barLine" class="barLine">
                  <path d="M7045 1080 L7045 1800" stroke-width="27" />
                  <path d="M7045 2880 L7045 3600" stroke-width="27" />
               </g>
            </g>
            <g data-id="z1bagvfc" data-class="systemMilestoneEnd" class="systemMilestoneEnd p1jd3w68" />
            <g data-id="a1aqma8c" data-class="systemMilestoneEnd" class="systemMilestoneEnd yhbsl03" />
         </g>
         <g data-id="bswd8gq" data-class="pageMilestoneEnd" class="pageMilestoneEnd wtn72u" />
         <g data-id="c1ozm4yt" data-class="pageMilestoneEnd" class="pageMilestoneEnd v3bpgbh" />
      </g>
   </svg>
</svg>
